<svg width="75" height="65" viewBox="0 0 75 65" fill="none" xmlns="http://www.w3.org/2000/svg">
    <path fill-rule="evenodd" clip-rule="evenodd" d="M9.737 33.098c-1.89 0-4.081.903-5.269 1.84l1.088 2.275c.953-.87 2.492-1.606 3.88-1.606 1.322 0 2.04.435 2.04 1.321 0 .603-.484.904-1.388 1.02C6.676 38.384 4 39.32 4 41.947c0 2.074 1.489 3.346 3.797 3.346 1.656 0 3.128-.92 3.83-2.125v1.79h3.078v-7.51c0-3.095-2.158-4.349-4.968-4.349zm-1.154 9.785c-.87 0-1.305-.418-1.305-1.12 0-1.305 1.456-1.74 4.115-2.025.017 1.74-1.17 3.145-2.81 3.145zm35.142-7.51v-1.94h-3.077v11.524h3.295v-5.553c0-2.643 1.589-3.412 2.71-3.412.434 0 1.02.134 1.404.418l.602-3.044c-.501-.218-1.036-.268-1.471-.268-1.69 0-2.76.753-3.463 2.275zm20.222-2.275c-1.74 0-3.044 1.037-3.73 2.024-.635-1.288-1.956-2.024-3.562-2.024-1.74 0-2.944.97-3.513 2.074v-1.74h-3.178v11.525h3.295v-5.938c0-2.124 1.12-3.144 2.158-3.144.937 0 1.806.602 1.806 2.174v6.908h3.312v-5.938c0-2.158 1.088-3.144 2.175-3.144.87 0 1.79.635 1.79 2.157v6.925h3.294v-7.962c0-2.592-1.739-3.897-3.847-3.897zm-37.6-.518v.852h-5.002v-1.17c0-1.522.87-1.957 1.623-1.957.435 0 1.003.1 1.472.368l1.02-2.325c-.602-.352-1.589-.67-2.91-.67-2.108 0-4.5 1.188-4.5 4.918v.853h-1.907v2.543h1.907v8.965h3.295v-8.982h5.002v8.982h3.295v-8.982h2.994v-2.543h-2.994v-1.17c0-1.522.87-1.957 1.622-1.957.836 0 1.472.368 1.472.368l1.02-2.325s-1.037-.67-2.91-.67c-2.09-.016-4.5 1.171-4.5 4.902zm8.246.852h3.295v11.525h-3.295V33.432z" fill="#060809"/>
    <path fill-rule="evenodd" clip-rule="evenodd" d="M53.794 17.358c-8.898 0-16.826 6.172-19.068 14.117h3.229c1.873-5.92 8.246-11.106 15.84-11.106 9.233 0 17.194 7.025 17.194 17.964 0 2.46-.318 4.667-.92 6.624h3.128l.034-.1c.518-2.024.769-4.215.769-6.524C74 26.14 65.118 17.36 53.794 17.36z" fill="#494AF4"/>
</svg>
