<svg width="75" height="65" viewBox="0 0 75 65" fill="none" xmlns="http://www.w3.org/2000/svg">
    <path fill="#fff" d="M0 0h75v65H0z"/>
    <path d="M56.859 19H16.497C11.252 19 7 23.216 7 28.418v7.132c0 5.202 4.252 9.418 9.497 9.418h11.838c.394 0 .764.188.997.505l6.33 8.621c.5.681 1.52.672 2.006-.018l6.06-8.584a1.237 1.237 0 0 1 1.01-.524h12.12c5.246 0 9.498-4.216 9.498-9.418v-7.132c0-5.201-4.252-9.418-9.497-9.418z" stroke="#000" stroke-width="2.473"/>
    <circle cx="22.13" cy="31.929" r="2.728" fill="#000"/>
    <circle cx="36.678" cy="31.929" r="2.728" fill="#000"/>
    <circle cx="51.226" cy="31.929" r="2.728" fill="#000"/>
</svg>
