<svg width="30" height="14" viewBox="0 0 30 14" fill="none" xmlns="http://www.w3.org/2000/svg">
<path fill-rule="evenodd" clip-rule="evenodd" d="M6.99995 12.8H13.8L16.9 1.19995H6.99995C3.79995 1.19995 1.19995 3.79995 1.19995 6.99995C1.19995 10.2 3.79995 12.8 6.99995 12.8Z" fill="white"/>
<path fill-rule="evenodd" clip-rule="evenodd" d="M22.2 0H7C3.1 0 0 3.1 0 7C0 10.9 3.1 14 7 14H22.2C26.1 14 29.2 10.9 29.2 7C29.2 3.1 26 0 22.2 0ZM1.2 7C1.2 3.8 3.8 1.2 7 1.2H16.9L13.8 12.8H7C3.8 12.8 1.2 10.2 1.2 7Z" fill="#0066FF"/>
<path d="M24.2 4.0001C24.4 4.2001 24.4 4.6001 24.2 4.8001L22.1 7.0001L24.3 9.2001C24.5 9.4001 24.5 9.8001 24.3 10.0001C24.1 10.2001 23.7 10.2001 23.5 10.0001L21.3 7.8001L19.1 10.0001C18.9 10.2001 18.5 10.2001 18.3 10.0001C18.1 9.8001 18.1 9.4001 18.3 9.2001L20.4 7.0001L18.2 4.8001C18 4.6001 18 4.2001 18.2 4.0001C18.4 3.8001 18.8 3.8001 19 4.0001L21.2 6.2001L23.4 4.0001C23.6 3.8001 24 3.8001 24.2 4.0001Z" fill="white"/>
<path d="M12.3 4.09995C12.5 4.29995 12.6 4.69995 12.4 4.89995L8.20001 9.79995C8.10001 9.89995 8.00001 9.99995 7.90001 9.99995C7.70001 10.1 7.40001 10.1 7.20001 9.89995L5.00001 7.69995C4.80001 7.49995 4.80001 7.09995 5.00001 6.89995C5.20001 6.69995 5.60001 6.69995 5.80001 6.89995L7.60001 8.59995L11.4 4.09995C11.6 3.89995 12 3.89995 12.3 4.09995Z" fill="#0066FF"/>
</svg>
